<svg width="20" height="20" viewBox="0 0 20 20" fill="none" xmlns="http://www.w3.org/2000/svg">
<mask id="mask0_40_1279" style="mask-type:alpha" maskUnits="userSpaceOnUse" x="0" y="0" width="20" height="20">
<rect width="20" height="20" fill="#D9D9D9"/>
</mask>
<g mask="url(#mask0_40_1279)">
<path d="M5.0815 14.2225C5.8315 13.7109 6.61359 13.3305 7.42775 13.0815C8.24178 12.8326 9.09914 12.7082 9.99984 12.7082C10.9005 12.7082 11.7579 12.8326 12.5719 13.0815C13.3861 13.3305 14.1682 13.7109 14.9182 14.2225C15.4362 13.6531 15.8294 13.0078 16.0975 12.2867C16.3657 11.5656 16.4998 10.8033 16.4998 9.99984C16.4998 8.19886 15.8663 6.66525 14.5992 5.399C13.3321 4.13289 11.7974 3.49984 9.99505 3.49984C8.19268 3.49984 6.65956 4.13289 5.39567 5.399C4.13178 6.66525 3.49984 8.19886 3.49984 9.99984C3.49984 10.8033 3.63393 11.5656 3.90213 12.2867C4.17032 13.0078 4.56345 13.6531 5.0815 14.2225ZM10 11.2915C9.22532 11.2915 8.56636 11.02 8.02317 10.4769C7.47984 9.93373 7.20817 9.27477 7.20817 8.50005C7.20817 7.72532 7.4797 7.06636 8.02275 6.52317C8.56595 5.97984 9.22491 5.70817 9.99963 5.70817C10.7744 5.70817 11.4333 5.9797 11.9765 6.52275C12.5198 7.06595 12.7915 7.72491 12.7915 8.49963C12.7915 9.27435 12.52 9.93331 11.9769 10.4765C11.4337 11.0198 10.7748 11.2915 10 11.2915ZM10.0057 17.5832C8.95803 17.5832 7.97345 17.3869 7.05192 16.9942C6.13039 16.6016 5.3238 16.0594 4.63213 15.3675C3.94032 14.6759 3.3981 13.8696 3.00546 12.9486C2.61282 12.0278 2.4165 11.0416 2.4165 9.99025C2.4165 8.939 2.61282 7.95609 3.00546 7.0415C3.3981 6.12692 3.94032 5.3238 4.63213 4.63213C5.3238 3.94032 6.13012 3.3981 7.05109 3.00546C7.97192 2.61282 8.95803 2.4165 10.0094 2.4165C11.0607 2.4165 12.0436 2.61282 12.9582 3.00546C13.8728 3.3981 14.6759 3.94032 15.3675 4.63213C16.0594 5.3238 16.6016 6.12845 16.9942 7.04609C17.3869 7.96386 17.5832 8.9465 17.5832 9.994C17.5832 11.0416 17.3869 12.0262 16.9942 12.9478C16.6016 13.8693 16.0594 14.6759 15.3675 15.3675C14.6759 16.0594 13.8712 16.6016 12.9536 16.9942C12.0358 17.3869 11.0532 17.5832 10.0057 17.5832ZM9.99984 16.4998C10.738 16.4998 11.4632 16.3719 12.1753 16.1161C12.8873 15.8601 13.535 15.4939 14.1184 15.0175C13.5212 14.6264 12.8746 14.3244 12.1786 14.1113C11.4825 13.8981 10.7562 13.7915 9.99984 13.7915C9.24345 13.7915 8.51241 13.8932 7.80671 14.0967C7.10102 14.3003 6.45921 14.6073 5.8813 15.0175C6.46463 15.4939 7.11234 15.8601 7.82442 16.1161C8.5365 16.3719 9.26164 16.4998 9.99984 16.4998ZM9.99984 10.2082C10.47 10.2082 10.8722 10.0409 11.2065 9.7065C11.5409 9.3722 11.7082 8.96998 11.7082 8.49984C11.7082 8.0297 11.5409 7.62748 11.2065 7.29317C10.8722 6.95873 10.47 6.7915 9.99984 6.7915C9.5297 6.7915 9.12748 6.95873 8.79317 7.29317C8.45873 7.62748 8.2915 8.0297 8.2915 8.49984C8.2915 8.96998 8.45873 9.3722 8.79317 9.7065C9.12748 10.0409 9.5297 10.2082 9.99984 10.2082Z" fill="#3F3F3F"/>
</g>
</svg>
