<svg width="20" height="20" viewBox="0 0 20 20" fill="none" xmlns="http://www.w3.org/2000/svg">
<mask id="mask0_40_1289" style="mask-type:alpha" maskUnits="userSpaceOnUse" x="0" y="0" width="20" height="20">
<rect width="20" height="20" fill="#D9D9D9"/>
</mask>
<g mask="url(#mask0_40_1289)">
<path d="M4.7563 17.5835C4.38116 17.5835 4.06407 17.4516 3.80505 17.1877C3.54602 16.9238 3.4165 16.6091 3.4165 16.2437V5.75663C3.4165 5.39122 3.54602 5.07656 3.80505 4.81268C4.06407 4.54879 4.38116 4.41684 4.7563 4.41684H6.57671V2.8783C6.57671 2.71927 6.62949 2.58656 6.73505 2.48018C6.8406 2.37393 6.97227 2.3208 7.13005 2.3208C7.28796 2.3208 7.42109 2.37393 7.52942 2.48018C7.63789 2.58656 7.69213 2.71927 7.69213 2.8783V4.41684H12.3396V2.86247C12.3396 2.70872 12.391 2.57997 12.4938 2.47622C12.5967 2.37261 12.7244 2.3208 12.8769 2.3208C13.0294 2.3208 13.1585 2.37261 13.2642 2.47622C13.37 2.57997 13.423 2.70872 13.423 2.86247V4.41684H15.2434C15.6185 4.41684 15.9356 4.54879 16.1946 4.81268C16.4537 5.07656 16.5832 5.39122 16.5832 5.75663V16.2437C16.5832 16.6091 16.4537 16.9238 16.1946 17.1877C15.9356 17.4516 15.6185 17.5835 15.2434 17.5835H4.7563ZM4.7563 16.5002H15.2434C15.3075 16.5002 15.3663 16.4734 15.4196 16.42C15.4731 16.3666 15.4998 16.3079 15.4998 16.2437V9.25663H4.49984V16.2437C4.49984 16.3079 4.52657 16.3666 4.58005 16.42C4.63338 16.4734 4.69213 16.5002 4.7563 16.5002ZM4.49984 8.1733H15.4998V5.75663C15.4998 5.69247 15.4731 5.63372 15.4196 5.58038C15.3663 5.52691 15.3075 5.50018 15.2434 5.50018H4.7563C4.69213 5.50018 4.63338 5.52691 4.58005 5.58038C4.52657 5.63372 4.49984 5.69247 4.49984 5.75663V8.1733ZM10.0042 12.0643C9.82505 12.0643 9.67053 12.0009 9.54067 11.8739C9.41095 11.7471 9.34609 11.5941 9.34609 11.4148C9.34609 11.2356 9.40949 11.0811 9.5363 10.9512C9.66324 10.8215 9.8163 10.7566 9.99546 10.7566C10.1746 10.7566 10.3291 10.82 10.459 10.9468C10.5887 11.0738 10.6536 11.2268 10.6536 11.406C10.6536 11.5853 10.5902 11.7398 10.4634 11.8696C10.3364 11.9994 10.1834 12.0643 10.0042 12.0643ZM6.75421 12.0643C6.57505 12.0643 6.42053 12.0009 6.29067 11.8739C6.16095 11.7471 6.09609 11.5941 6.09609 11.4148C6.09609 11.2356 6.15949 11.0811 6.2863 10.9512C6.41324 10.8215 6.5663 10.7566 6.74546 10.7566C6.92463 10.7566 7.07914 10.82 7.209 10.9468C7.33873 11.0738 7.40359 11.2268 7.40359 11.406C7.40359 11.5853 7.34018 11.7398 7.21338 11.8696C7.08643 11.9994 6.93338 12.0643 6.75421 12.0643ZM13.2542 12.0643C13.075 12.0643 12.9205 12.0009 12.7907 11.8739C12.6609 11.7471 12.5961 11.5941 12.5961 11.4148C12.5961 11.2356 12.6595 11.0811 12.7863 10.9512C12.9132 10.8215 13.0663 10.7566 13.2455 10.7566C13.4246 10.7566 13.5791 10.82 13.709 10.9468C13.8387 11.0738 13.9036 11.2268 13.9036 11.406C13.9036 11.5853 13.8402 11.7398 13.7134 11.8696C13.5864 11.9994 13.4334 12.0643 13.2542 12.0643ZM10.0042 15.0002C9.82505 15.0002 9.67053 14.9367 9.54067 14.8098C9.41095 14.683 9.34609 14.53 9.34609 14.3508C9.34609 14.1715 9.40949 14.017 9.5363 13.8873C9.66324 13.7574 9.8163 13.6925 9.99546 13.6925C10.1746 13.6925 10.3291 13.7559 10.459 13.8829C10.5887 14.0097 10.6536 14.1627 10.6536 14.3421C10.6536 14.5212 10.5902 14.6757 10.4634 14.8054C10.3364 14.9352 10.1834 15.0002 10.0042 15.0002ZM6.75421 15.0002C6.57505 15.0002 6.42053 14.9367 6.29067 14.8098C6.16095 14.683 6.09609 14.53 6.09609 14.3508C6.09609 14.1715 6.15949 14.017 6.2863 13.8873C6.41324 13.7574 6.5663 13.6925 6.74546 13.6925C6.92463 13.6925 7.07914 13.7559 7.209 13.8829C7.33873 14.0097 7.40359 14.1627 7.40359 14.3421C7.40359 14.5212 7.34018 14.6757 7.21338 14.8054C7.08643 14.9352 6.93338 15.0002 6.75421 15.0002ZM13.2542 15.0002C13.075 15.0002 12.9205 14.9367 12.7907 14.8098C12.6609 14.683 12.5961 14.53 12.5961 14.3508C12.5961 14.1715 12.6595 14.017 12.7863 13.8873C12.9132 13.7574 13.0663 13.6925 13.2455 13.6925C13.4246 13.6925 13.5791 13.7559 13.709 13.8829C13.8387 14.0097 13.9036 14.1627 13.9036 14.3421C13.9036 14.5212 13.8402 14.6757 13.7134 14.8054C13.5864 14.9352 13.4334 15.0002 13.2542 15.0002Z" fill="#3F3F3F"/>
</g>
</svg>
